<svg width="108.000000" height="108.000000" viewBox="0 0 108 108" fill="none" xmlns="http://www.w3.org/2000/svg" xmlns:xlink="http://www.w3.org/1999/xlink">
	<desc>
			Created with Pixso.
	</desc>
	<defs/>
	<path id="Path 10867" d="M82.59 74.44L70.44 29.11C70.44 29.11 65.9 53.22 63.13 56.49C60.47 59.63 50.17 53.73 38.3 42.19C38.16 42.06 37.99 41.97 37.8 41.93C37.61 41.88 37.41 41.89 37.23 41.96C37.05 42.02 36.89 42.13 36.76 42.28C36.64 42.43 36.56 42.6 36.53 42.8C35.77 48.01 33.8 61.64 32.98 66.07C32.2 70.34 20.47 66.68 15.21 64.81C15.01 64.74 14.8 64.73 14.59 64.78C14.39 64.83 14.2 64.94 14.06 65.1C13.92 65.26 13.83 65.46 13.81 65.67C13.78 65.88 13.82 66.09 13.91 66.27C16.6 71.38 24.89 81.22 31.04 88.18C31.38 88.56 31.85 88.81 32.36 88.86C32.88 88.92 33.39 88.77 33.81 88.47C39.26 84.44 58.48 71.27 74.18 " stroke="#FFFFFF" stroke-opacity="1.000000" stroke-width="2.000000" stroke-linejoin="round" stroke-linecap="round"/>
	<path id="Path 10868" d="M36.17 28.68C39.25 29.83 39.02 31.84 37.46 33.4C37.12 33.79 36.7 34.1 36.23 34.32C35.77 34.54 35.26 34.67 34.75 34.7C34.23 34.72 33.72 34.64 33.24 34.46C32.75 34.29 32.31 34.01 31.94 33.66C30.39 32.11 31.26 29.08 32.81 " stroke="#FFFFFF" stroke-opacity="1.000000" stroke-width="2.000000" stroke-linejoin="round" stroke-linecap="round"/>
	<path id="Path 10869" d="M2.34 57.34C3.06 59.27 4.32 59.13 5.3 58.15C5.54 57.93 5.73 57.67 5.87 57.38C6.01 57.09 6.09 56.77 6.1 56.45C6.12 56.13 6.07 55.81 5.96 55.51C5.85 55.21 5.68 54.93 5.46 54.7C4.49 53.73 2.59 54.27 1.62 " stroke="#FFFFFF" stroke-opacity="1.000000" stroke-width="2.000000" stroke-linejoin="round" stroke-linecap="round"/>
	<path id="Path 10870" d="M73.42 19.8C72.52 22.21 70.96 22.05 69.74 20.86C69.44 20.59 69.19 20.27 69.02 19.91C68.84 19.55 68.74 19.16 68.72 18.76C68.7 18.36 68.76 17.96 68.9 17.58C69.04 17.2 69.25 16.86 69.52 16.56C70.72 15.34 73.09 15.97 74.31 " stroke="#FFFFFF" stroke-opacity="1.000000" stroke-width="2.000000" stroke-linejoin="round" stroke-dasharray="12.3804 22.3804"/>
</svg>
