<svg width="860" height="401" viewBox="0 0 860 401" fill="none" xmlns="http://www.w3.org/2000/svg">
<line x1="850.5" y1="377.5" x2="24.5" y2="377.5" stroke="white" stroke-width="5" stroke-linecap="round"/>
<line x1="24.5001" y1="4.5" x2="24.5" y2="374.5" stroke="white" stroke-width="5" stroke-linecap="round"/>
<path d="M24 3L3 24" stroke="white" stroke-width="5" stroke-linecap="round"/>
<path d="M24 3L45 24" stroke="white" stroke-width="5" stroke-linecap="round"/>
<path fill-rule="evenodd" clip-rule="evenodd" d="M24.0022 196.392C24.0022 196.392 24.8746 196.094 32.2922 188.565C39.7098 181.037 56.4713 169.111 73.0512 181.037C88.9404 192.963 105.52 252.593 121.409 270.481C137.989 288.37 153.879 264.519 170.458 252.593C186.348 240.667 202.928 240.667 218.817 210.852C235.397 181.037 251.286 121.407 267.866 115.444C283.755 109.481 300.335 157.185 316.915 175.074C332.804 192.963 349.384 181.037 365.273 169.111C381.853 157.185 397.742 145.259 414.322 163.148C430.211 181.037 446.791 228.741 462.68 234.704C479.26 240.667 495.149 204.889 511.729 169.111C527.618 133.333 544.198 97.5556 560.087 79.6667C576.667 61.7778 593.247 61.7778 609.136 73.7037C625.716 85.6296 641.605 109.481 658.185 151.222C674.075 192.963 690.655 124.646 706.544 160.423C723.124 196.201 739.013 208.127 755.593 160.423C771.482 112.72 788.062 133.333 803.951 79.6667C820.531 26 836.42 26 844.71 26H853V348H844.71C836.42 348 820.531 348 803.951 348C788.062 348 771.482 348 755.593 348C739.013 348 723.124 348 706.544 348C690.655 348 674.075 348 658.185 348C641.605 348 625.716 348 609.136 348C593.247 348 576.667 348 560.087 348C544.198 348 527.618 348 511.729 348C495.149 348 479.26 348 462.68 348C446.791 348 430.211 348 414.322 348C397.742 348 381.853 348 365.273 348C349.384 348 332.804 348 316.915 348C300.335 348 283.755 348 267.866 348C251.286 348 235.397 348 218.817 348C202.928 348 186.348 348 170.458 348C153.879 348 137.989 348 121.409 348C105.52 348 88.9404 348 73.0512 348C56.4713 348 40.5822 348 32.2922 348H24.0022V196.392Z" fill="url(#paint0_linear_1_469)" fill-opacity="0.1"/>
<g filter="url(#filter0_d_1_469)">
<path d="M24.0001 194.934L27.4562 191.086C34.8762 183.45 56.4691 169.481 73.0491 181.438C88.9382 193.394 105.518 253.178 121.407 271.113C137.987 289.048 153.876 265.135 170.456 253.178C186.345 241.221 202.925 241.221 218.815 211.33C235.394 181.438 251.284 121.654 267.864 115.676C283.753 109.697 300.333 157.524 316.913 175.459C332.802 193.394 349.382 181.438 365.271 169.481C381.851 157.524 397.74 145.567 414.32 163.503C430.209 181.438 446.789 229.265 462.678 235.243C479.258 241.221 495.147 205.351 511.727 169.481C527.616 133.611 544.196 97.7405 560.085 79.8054C576.665 61.8702 593.245 61.8702 609.134 73.827C625.714 85.7837 641.603 109.697 658.183 151.546C674.072 193.394 690.652 124.901 706.542 160.771C723.122 196.641 739.011 208.598 755.591 160.771C771.48 112.944 788.06 133.611 803.949 79.8054C820.529 26 836.418 26 844.708 26H852.998" stroke="white" stroke-width="5" stroke-linecap="round" stroke-linejoin="round" shape-rendering="crispEdges"/>
</g>
<path d="M853 377L832 356" stroke="white" stroke-width="5" stroke-linecap="round"/>
<path d="M853 377L832 398" stroke="white" stroke-width="5" stroke-linecap="round"/>
<defs>
<filter id="filter0_d_1_469" x="17.5" y="21.5" width="841.998" height="264.562" filterUnits="userSpaceOnUse" color-interpolation-filters="sRGB">
<feFlood flood-opacity="0" result="BackgroundImageFix"/>
<feColorMatrix in="SourceAlpha" type="matrix" values="0 0 0 0 0 0 0 0 0 0 0 0 0 0 0 0 0 0 127 0" result="hardAlpha"/>
<feOffset dy="2"/>
<feGaussianBlur stdDeviation="2"/>
<feComposite in2="hardAlpha" operator="out"/>
<feColorMatrix type="matrix" values="0 0 0 0 0.960784 0 0 0 0 0.803922 0 0 0 0 0.321569 0 0 0 0.4 0"/>
<feBlend mode="normal" in2="BackgroundImageFix" result="effect1_dropShadow_1_469"/>
<feBlend mode="normal" in="SourceGraphic" in2="effect1_dropShadow_1_469" result="shape"/>
</filter>
<linearGradient id="paint0_linear_1_469" x1="438.501" y1="26" x2="438.501" y2="348" gradientUnits="userSpaceOnUse">
<stop stop-color="white"/>
<stop offset="1" stop-color="#215EE6" stop-opacity="0"/>
</linearGradient>
</defs>
</svg>
