<svg width="32.000000" height="32.000000" viewBox="0 0 32 32" fill="none" xmlns="http://www.w3.org/2000/svg" xmlns:xlink="http://www.w3.org/1999/xlink">
	<desc>
			Created with Pixso.
	</desc>
	<defs>
		<clipPath id="clip1_1487">
			<rect id="ant-design:plus-outlined" width="32.000000" height="32.000000" fill="white" fill-opacity="0"/>
		</clipPath>
	</defs>
	<rect id="ant-design:plus-outlined" width="32.000000" height="32.000000" fill="#FFFFFF" fill-opacity="0"/>
	<g clip-path="url(#clip1_1487)">
		<path id="Vector" d="M15.06 4.75L16.93 4.75C17.1 4.75 17.18 4.83 17.18 5L17.18 27C17.18 27.16 17.1 27.25 16.93 27.25L15.06 27.25C14.89 27.25 14.81 27.16 14.81 27L14.81 5C14.81 4.83 14.89 4.75 15.06 4.75Z" fill="#000000" fill-opacity="1.000000" fill-rule="nonzero"/>
		<path id="Vector" d="M5.5 14.81L26.5 14.81C26.66 14.81 26.75 14.89 26.75 15.06L26.75 16.93C26.75 17.1 26.66 17.18 26.5 17.18L5.5 17.18C5.33 17.18 5.25 17.1 5.25 16.93L5.25 15.06C5.25 14.89 5.33 14.81 5.5 14.81Z" fill="#000000" fill-opacity="1.000000" fill-rule="nonzero"/>
	</g>
</svg>
